<?xml version="1.0" encoding="UTF-8" standalone="no"?>
<!-- Created with Inkscape (http://www.inkscape.org/) -->

<svg
   width="210mm"
   height="297mm"
   viewBox="0 0 210 297"
   version="1.1"
   id="svg1"
   inkscape:version="1.4.2 (ebf0e940, 2025-05-08)"
   sodipodi:docname="eyes.svg"
   xmlns:inkscape="http://www.inkscape.org/namespaces/inkscape"
   xmlns:sodipodi="http://sodipodi.sourceforge.net/DTD/sodipodi-0.dtd"
   xmlns="http://www.w3.org/2000/svg"
   xmlns:svg="http://www.w3.org/2000/svg">
  <sodipodi:namedview
     id="namedview1"
     pagecolor="#ffffff"
     bordercolor="#000000"
     borderopacity="0.25"
     inkscape:showpageshadow="2"
     inkscape:pageopacity="0.0"
     inkscape:pagecheckerboard="0"
     inkscape:deskcolor="#d1d1d1"
     inkscape:document-units="mm"
     inkscape:zoom="1.8439991"
     inkscape:cx="119.30591"
     inkscape:cy="134.4903"
     inkscape:window-width="1440"
     inkscape:window-height="847"
     inkscape:window-x="0"
     inkscape:window-y="25"
     inkscape:window-maximized="1"
     inkscape:current-layer="svg1" />
  <defs
     id="defs1" />
  <g
     id="g16"
     inkscape:label="classiceye-0"
     transform="translate(-65.858898,-1.1478675)">
    <path
       id="path15-0-1-3"
       style="fill:none;stroke:#003e85;stroke-width:0.98377"
       d="m 90.144946,9.0364386 -0.787523,-0.615642 m 0.711821,0.293602 c 0.003,0.138376 -0.186329,0.242497 -0.315262,0.24063 -0.124267,-0.0018 -0.299545,-0.10724 -0.29792,-0.24063 0.0016,-0.127728 0.171819,-0.219267 0.290787,-0.222324 0.127693,-0.0033 0.319388,0.08525 0.322395,0.222324 z" />
    <path
       id="path15-0-1-2"
       style="fill:none;stroke:#003e85;stroke-width:0.98377"
       d="M 95.30842,9.0364388 94.520897,8.4207966 m 0.711821,0.293602 c 0.003,0.138376 -0.186329,0.242497 -0.315262,0.24063 -0.124267,-0.0018 -0.299545,-0.10724 -0.29792,-0.24063 0.0016,-0.127728 0.171819,-0.219267 0.290787,-0.222324 0.127693,-0.0033 0.319388,0.08525 0.322395,0.222324 z" />
  </g>
  <g
     id="g19"
     inkscape:label="cuteyesingle-0"
     transform="translate(-18.937536,-24.375175)">
    <path
       id="rect18-6"
       style="fill:#413ed5;fill-opacity:1;stroke:none;stroke-width:0.793999;stroke-opacity:1"
       d="m 75.815932,28.457282 c -1.165825,0 -2.104264,0.93844 -2.104264,2.104265 v 3.72587 c 0,1.165826 0.938439,2.104782 2.104264,2.104782 h 1.536857 c 1.165825,0 2.104264,-0.938956 2.104264,-2.104782 v -3.72587 c 0,-1.165825 -0.938439,-2.104265 -2.104264,-2.104265 z m 1.400948,1.081071 a 0.92758572,1.2703191 0 0 1 0.927592,1.270207 0.92758572,1.2703191 0 0 1 -0.927592,1.270207 0.92758572,1.2703191 0 0 1 -0.927592,-1.270207 0.92758572,1.2703191 0 0 1 0.927592,-1.270207 z" />
    <path
       id="rect18-6-9"
       style="fill:#413ed5;fill-opacity:1;stroke:none;stroke-width:0.793999;stroke-opacity:1"
       d="m 84.526145,28.457282 c -1.165825,0 -2.104264,0.93844 -2.104264,2.104265 v 3.72587 c 0,1.165826 0.938439,2.104782 2.104264,2.104782 h 1.536857 c 1.165825,0 2.104264,-0.938956 2.104264,-2.104782 v -3.72587 c 0,-1.165825 -0.938439,-2.104265 -2.104264,-2.104265 z m 1.400948,1.081071 a 0.92758572,1.2703191 0 0 1 0.927592,1.270207 0.92758572,1.2703191 0 0 1 -0.927592,1.270207 0.92758572,1.2703191 0 0 1 -0.927592,-1.270207 0.92758572,1.2703191 0 0 1 0.927592,-1.270207 z" />
  </g>
  <g
     id="g18"
     inkscape:label="cuteeye-0"
     transform="translate(-68.869772,-11.605149)">
    <path
       id="rect18"
       style="fill:#413ed5;fill-opacity:1;stroke:none;stroke-width:0.793999;stroke-opacity:1"
       d="m 76.033085,16 c -1.165825,0 -2.104264,0.93844 -2.104264,2.104265 v 3.72587 c 0,1.165826 0.938439,2.104782 2.104264,2.104782 h 1.536857 c 1.165825,0 2.104265,-0.938956 2.104265,-2.104782 v -3.72587 C 79.674207,16.93844 78.735767,16 77.569942,16 Z m 1.400948,1.081071 a 0.92758572,1.2703191 0 0 1 0.927592,1.270207 0.92758572,1.2703191 0 0 1 -0.927592,1.270207 0.92758572,1.2703191 0 0 1 -0.927592,-1.270207 0.92758572,1.2703191 0 0 1 0.927592,-1.270207 z m -1.196309,3.185336 a 0.78410846,1.0837986 0 0 1 0.783931,1.084171 0.78410846,1.0837986 0 0 1 -0.783931,1.083655 0.78410846,1.0837986 0 0 1 -0.784448,-1.083655 0.78410846,1.0837986 0 0 1 0.784448,-1.084171 z" />
    <path
       id="rect18-5"
       style="fill:#413ed5;fill-opacity:1;stroke:none;stroke-width:0.793999;stroke-opacity:1"
       d="m 85.547172,16 c 1.165825,0 2.104264,0.93844 2.104264,2.104265 v 3.72587 c 0,1.165826 -0.938439,2.104782 -2.104264,2.104782 h -1.536857 c -1.165825,0 -2.104265,-0.938956 -2.104265,-2.104782 v -3.72587 C 81.90605,16.93844 82.84449,16 84.010315,16 Z m -1.400948,1.081071 a 0.92758572,1.2703191 0 0 0 -0.927592,1.270207 0.92758572,1.2703191 0 0 0 0.927592,1.270207 0.92758572,1.2703191 0 0 0 0.927592,-1.270207 0.92758572,1.2703191 0 0 0 -0.927592,-1.270207 z m 1.196309,3.185336 a 0.78410846,1.0837986 0 0 0 -0.783931,1.084171 0.78410846,1.0837986 0 0 0 0.783931,1.083655 0.78410846,1.0837986 0 0 0 0.784448,-1.083655 0.78410846,1.0837986 0 0 0 -0.784448,-1.084171 z" />
  </g>
  <g
     id="g17"
     inkscape:label="cubeeye-0"
     transform="translate(-65.858898,-1.1478675)">
    <path
       id="rect17"
       style="fill:#0113ef;fill-opacity:1;stroke:none;stroke-width:0.793999"
       d="m 102.898,6 c -0.91179,0 -1.64589,0.7341079 -1.64589,1.6458943 V 10.88549 c 0,0.911787 0.7341,1.645895 1.64589,1.645895 h 2.08514 c 0.91179,0 1.6459,-0.734108 1.6459,-1.645895 V 7.6458943 C 106.62904,6.7341079 105.89493,6 104.98314,6 Z m 1.92495,0.4196126 c 1.35835,0.02065 1.48927,1.2458952 1.48931,2.7827759 -4e-5,1.5368805 0.0751,2.8445645 -1.48931,2.7827765 -0.8225,-3e-5 -1.48928,-1.245888 -1.48932,-2.7827765 4e-5,-1.536888 0.66682,-2.7827462 1.48932,-2.7827759 z"
       sodipodi:nodetypes="sssssssssccccc" />
    <path
       id="rect17-2"
       style="fill:#0113ef;fill-opacity:1;stroke:none;stroke-width:0.793999"
       d="m 110.56658,6 c -0.91179,0 -1.64589,0.734108 -1.64589,1.645894 v 3.239595 c 0,0.911787 0.7341,1.645895 1.64589,1.645895 h 2.08514 c 0.91179,0 1.6459,-0.734108 1.6459,-1.645895 V 7.645894 C 114.29762,6.734108 113.56351,6 112.65172,6 Z m 1.92495,0.419612 c 1.35835,0.02065 1.48927,1.245896 1.48931,2.7827763 -4e-5,1.5368807 0.0751,2.8445647 -1.48931,2.7827757 -0.8225,-3e-5 -1.48928,-1.245888 -1.48932,-2.7827757 4e-5,-1.5368883 0.66682,-2.7827463 1.48932,-2.7827763 z"
       sodipodi:nodetypes="sssssssssccccc" />
  </g>
</svg>
