<?xml version="1.0" encoding="UTF-8" standalone="no"?>
<!-- Created with Inkscape (http://www.inkscape.org/) -->

<svg
   width="210mm"
   height="297mm"
   viewBox="0 0 210 297"
   version="1.1"
   id="svg1"
   inkscape:version="1.4.3 (0d15f75042, 2025-12-25)"
   sodipodi:docname="eyes.svg"
   xmlns:inkscape="http://www.inkscape.org/namespaces/inkscape"
   xmlns:sodipodi="http://sodipodi.sourceforge.net/DTD/sodipodi-0.dtd"
   xmlns="http://www.w3.org/2000/svg"
   xmlns:svg="http://www.w3.org/2000/svg">
  <sodipodi:namedview
     id="namedview1"
     pagecolor="#ffffff"
     bordercolor="#000000"
     borderopacity="0.25"
     inkscape:showpageshadow="2"
     inkscape:pageopacity="0.0"
     inkscape:pagecheckerboard="0"
     inkscape:deskcolor="#d1d1d1"
     inkscape:document-units="mm"
     inkscape:zoom="2.6078085"
     inkscape:cx="134.21231"
     inkscape:cy="27.417657"
     inkscape:window-width="2560"
     inkscape:window-height="1371"
     inkscape:window-x="0"
     inkscape:window-y="0"
     inkscape:window-maximized="1"
     inkscape:current-layer="layer18" />
  <defs
     id="defs1" />
  <g
     id="g16"
     inkscape:label="classiceye-0"
     transform="translate(-65.858898,-1.1478675)">
    <path
       id="path15-0-1-3"
       style="fill:none;stroke:#003e85;stroke-width:0.98377"
       d="m 90.144946,9.0364386 -0.787523,-0.615642 m 0.711821,0.293602 c 0.003,0.138376 -0.186329,0.242497 -0.315262,0.24063 -0.124267,-0.0018 -0.299545,-0.10724 -0.29792,-0.24063 0.0016,-0.127728 0.171819,-0.219267 0.290787,-0.222324 0.127693,-0.0033 0.319388,0.08525 0.322395,0.222324 z" />
  </g>
  <g
     id="g19"
     inkscape:label="cuteyesingle-0"
     transform="translate(-18.937536,-24.375175)">
    <path
       id="rect18-6"
       style="fill:#413ed5;fill-opacity:1;stroke:none;stroke-width:0.793999;stroke-opacity:1"
       d="m 75.815932,28.457282 c -1.165825,0 -2.104264,0.93844 -2.104264,2.104265 v 3.72587 c 0,1.165826 0.938439,2.104782 2.104264,2.104782 h 1.536857 c 1.165825,0 2.104264,-0.938956 2.104264,-2.104782 v -3.72587 c 0,-1.165825 -0.938439,-2.104265 -2.104264,-2.104265 z m 1.400948,1.081071 a 0.92758572,1.2703191 0 0 1 0.927592,1.270207 0.92758572,1.2703191 0 0 1 -0.927592,1.270207 0.92758572,1.2703191 0 0 1 -0.927592,-1.270207 0.92758572,1.2703191 0 0 1 0.927592,-1.270207 z" />
  </g>
  <g
     id="g18"
     inkscape:label="cuteeye-0"
     transform="translate(-68.869772,-11.605149)">
    <path
       id="rect18"
       style="fill:#413ed5;fill-opacity:1;stroke:none;stroke-width:0.793999;stroke-opacity:1"
       d="m 76.033085,16 c -1.165825,0 -2.104264,0.93844 -2.104264,2.104265 v 3.72587 c 0,1.165826 0.938439,2.104782 2.104264,2.104782 h 1.536857 c 1.165825,0 2.104265,-0.938956 2.104265,-2.104782 v -3.72587 C 79.674207,16.93844 78.735767,16 77.569942,16 Z m 1.400948,1.081071 a 0.92758572,1.2703191 0 0 1 0.927592,1.270207 0.92758572,1.2703191 0 0 1 -0.927592,1.270207 0.92758572,1.2703191 0 0 1 -0.927592,-1.270207 0.92758572,1.2703191 0 0 1 0.927592,-1.270207 z m -1.196309,3.185336 a 0.78410846,1.0837986 0 0 1 0.783931,1.084171 0.78410846,1.0837986 0 0 1 -0.783931,1.083655 0.78410846,1.0837986 0 0 1 -0.784448,-1.083655 0.78410846,1.0837986 0 0 1 0.784448,-1.084171 z" />
  </g>
  <g
     id="g17"
     inkscape:label="cubeeye-0"
     transform="translate(-65.858898,-1.1478675)">
    <path
       id="rect17"
       style="fill:#413ed5;fill-opacity:1;stroke:none;stroke-width:0.793999"
       d="m 102.898,6 c -0.91179,0 -1.64589,0.7341079 -1.64589,1.6458943 V 10.88549 c 0,0.911787 0.7341,1.645895 1.64589,1.645895 h 2.08514 c 0.91179,0 1.6459,-0.734108 1.6459,-1.645895 V 7.6458943 C 106.62904,6.7341079 105.89493,6 104.98314,6 Z m 1.92495,0.4196126 c 1.35835,0.02065 1.48927,1.2458952 1.48931,2.7827759 -4e-5,1.5368805 0.0751,2.8445645 -1.48931,2.7827765 -0.8225,-3e-5 -1.48928,-1.245888 -1.48932,-2.7827765 4e-5,-1.536888 0.66682,-2.7827462 1.48932,-2.7827759 z"
       sodipodi:nodetypes="sssssssssccccc" />
  </g>
  <g
     inkscape:groupmode="layer"
     id="layer3"
     inkscape:label="patouneleft-0">
    <path
       id="path2"
       style="fill:#413ed5;fill-opacity:1;stroke:none;stroke-width:0.142862"
       d="m 9.6930465,17.000396 c -0.4141386,0.02158 -1.4297293,0.914246 -2.0343975,0.910472 -0.7175153,-0.0045 -1.9612161,-1.385623 -2.0818338,-0.671064 -0.00513,0.283417 -0.00965,0.592774 -0.013394,0.922749 -0.4523839,-0.03099 -1.2484798,-0.882297 -1.256466,-0.426079 -0.024033,1.372881 -0.02303,3.710045 0,5.396973 0.007,0.513152 0.7353391,1.02469 1.2528386,1.043288 0.00442,0.538618 0.010153,1.058521 0.017019,1.544144 0.011662,0.824507 1.2508004,1.645962 2.0955055,1.639853 0.8447042,-0.0062 2.1562366,-0.775248 2.1775396,-1.639853 0.064579,-2.621162 0.01591,-5.303267 0.027342,-8.494748 5.943e-4,-0.16931 -0.0682,-0.231775 -0.1841582,-0.225735 z"
       sodipodi:nodetypes="scscsscsssss" />
  </g>
  <g
     inkscape:groupmode="layer"
     id="layer4"
     inkscape:label="patouneleft-1">
    <path
       id="path2-6"
       style="fill:#413ed5;fill-opacity:1;stroke:none;stroke-width:0.142862"
       d="m 18.204113,17.000025 c -0.369035,-0.0056 -1.275433,0.915151 -1.898511,1.046637 -0.483041,-0.111284 -1.769809,-0.424475 -2.224973,-0.500577 -0.218798,-0.03657 -0.350096,-0.0532 -0.38757,0.154304 -0.244007,1.351234 -0.618161,3.658168 -0.866105,5.326935 -0.07713,0.519037 0.590418,1.157224 1.103278,1.236655 0.180453,0.02795 0.405677,0.0025 0.626141,-0.06614 0.05173,0.632156 0.103507,1.242219 0.153467,1.805874 0.07279,0.821369 1.369377,1.548728 2.2113,1.479967 0.841925,-0.06875 2.092644,-0.933143 2.049746,-1.796944 -0.130058,-2.618731 -0.37733,-5.29001 -0.602702,-8.473543 -0.01062,-0.150285 -0.06999,-0.211725 -0.16407,-0.213178 z"
       sodipodi:nodetypes="scsssscssssss" />
  </g>
  <g
     inkscape:groupmode="layer"
     id="layer5"
     inkscape:label="patouneright-0">
    <path
       id="path2-0"
       style="fill:#413ed5;fill-opacity:1;stroke:none;stroke-width:0.142862"
       d="m 28.425293,17.000396 c 0.414138,0.02158 1.429729,0.914246 2.034397,0.910472 0.717515,-0.0045 1.961216,-1.385623 2.081834,-0.671064 0.0051,0.283417 0.0097,0.592774 0.01339,0.922749 0.452384,-0.03099 1.24848,-0.882297 1.256466,-0.426079 0.02403,1.372881 0.02303,3.710045 0,5.396973 -0.007,0.513152 -0.735339,1.02469 -1.252839,1.043288 -0.0044,0.538618 -0.01015,1.058521 -0.01702,1.544144 -0.01166,0.824507 -1.2508,1.645962 -2.095505,1.639853 -0.844705,-0.0062 -2.156237,-0.775248 -2.17754,-1.639853 -0.06458,-2.621162 -0.01591,-5.303267 -0.02734,-8.494748 -5.94e-4,-0.16931 0.0682,-0.231775 0.184157,-0.225735 z"
       sodipodi:nodetypes="scscsscsssss" />
  </g>
  <g
     inkscape:groupmode="layer"
     id="layer6"
     inkscape:label="patouneright-1">
    <path
       id="path2-6-3"
       style="fill:#413ed5;fill-opacity:1;stroke:none;stroke-width:0.142862"
       d="m 36.959188,17.000025 c 0.369035,-0.0056 1.275433,0.915151 1.898511,1.046637 0.483041,-0.111284 1.769809,-0.424475 2.224973,-0.500577 0.218798,-0.03657 0.350096,-0.0532 0.38757,0.154304 0.244007,1.351234 0.618161,3.658168 0.866105,5.326935 0.07713,0.519037 -0.590418,1.157224 -1.103278,1.236655 -0.180453,0.02795 -0.405677,0.0025 -0.626141,-0.06614 -0.05173,0.632156 -0.103507,1.242219 -0.153467,1.805874 -0.07279,0.821369 -1.369377,1.548728 -2.2113,1.479967 -0.841925,-0.06875 -2.092644,-0.933143 -2.049746,-1.796944 0.130058,-2.618731 0.37733,-5.29001 0.602702,-8.473543 0.01062,-0.150285 0.06999,-0.211725 0.16407,-0.213178 z"
       sodipodi:nodetypes="scsssscssssss" />
  </g>
  <g
     inkscape:groupmode="layer"
     id="layer7"
     inkscape:label="moignonleft-0">
    <path
       style="fill:#413ed5;fill-opacity:1;stroke:#413ed5;stroke-width:0.264583;stroke-opacity:1"
       d="m 71.738865,18.034098 c -0.963312,-0.08119 -1.858944,0.442167 -2.64674,1.111642 -0.787796,0.669475 -0.552709,2.122144 -0.389155,2.909453 0.163554,0.787309 0.800785,2.393056 2.153548,2.416168 1.352763,0.02311 1.917854,-1.440791 2.215301,-1.943313 0.297447,-0.502522 0.660162,-1.6651 0.708992,-2.077165 0.07763,-0.655111 0.154593,-0.910409 -0.117639,-1.211058 -0.29058,-0.320912 -1.162884,-1.141554 -1.924307,-1.205727 z"
       id="path4-6"
       sodipodi:nodetypes="szzzzsss" />
  </g>
  <g
     inkscape:groupmode="layer"
     id="layer8"
     inkscape:label="moignonleft-1">
    <path
       style="fill:#413ed5;fill-opacity:1;stroke:#413ed5;stroke-width:0.264583;stroke-opacity:1"
       d="m 79.450952,17.996585 c 0,0 -1.867912,0.495973 -2.655708,1.165448 -0.787796,0.669475 -1.162514,1.996596 -1.178314,2.748034 -0.0158,0.751438 0.06543,2.177831 1.454066,2.362362 1.388634,0.184531 2.581465,-1.530468 2.914783,-1.889507 0.333318,-0.359039 1.449321,-1.503681 1.498151,-1.915746 0.07763,-0.655111 -0.117639,-1.211058 -0.117639,-1.211058 z"
       id="path4"
       sodipodi:nodetypes="czzzzscc" />
  </g>
  <g
     inkscape:groupmode="layer"
     id="layer10"
     inkscape:label="spagsleft-1">
    <path
       style="fill:none;fill-opacity:1;stroke:#413ed5;stroke-width:0.263946;stroke-opacity:1"
       d="m 61.833448,17.44134 c 0,0 -3.765541,-0.09282 -4.278823,1.219127 -0.604228,1.544406 1.332342,5.003912 1.332342,5.003912 l -1.859757,0.04169"
       id="path3-2"
       sodipodi:nodetypes="cscc" />
  </g>
  <g
     inkscape:groupmode="layer"
     id="layer9"
     inkscape:label="spagsleft-0">
    <path
       style="fill:none;fill-opacity:1;stroke:#413ed5;stroke-width:0.263946;stroke-opacity:1"
       d="m 53.919762,16.990529 c 0,0 -2.421038,1.729725 -2.93432,3.041675 -0.604228,1.544406 0.01772,5.063668 0.01772,5.063668 l -2.307924,-0.01807"
       id="path3"
       sodipodi:nodetypes="cscc" />
  </g>
  <g
     inkscape:groupmode="layer"
     id="layer11"
     inkscape:label="spagsright-0">
    <path
       style="fill:none;fill-opacity:1;stroke:#413ed5;stroke-width:0.263946;stroke-opacity:1"
       d="m 49.135971,27.395622 c 0,0 2.421038,1.729725 2.93432,3.041675 0.604228,1.544406 -0.01772,5.063668 -0.01772,5.063668 l 2.307924,-0.01807"
       id="path3-4"
       sodipodi:nodetypes="cscc" />
  </g>
  <g
     inkscape:groupmode="layer"
     id="layer12"
     inkscape:label="spagsright-1">
    <path
       style="fill:none;fill-opacity:1;stroke:#413ed5;stroke-width:0.263946;stroke-opacity:1"
       d="m 57.184818,26.770307 c 0,0 3.765541,-0.09282 4.278823,1.219127 0.604228,1.544406 -1.332342,5.003912 -1.332342,5.003912 l 1.859757,0.04169"
       id="path3-2-1"
       sodipodi:nodetypes="cscc" />
  </g>
  <g
     inkscape:groupmode="layer"
     id="layer13"
     inkscape:label="moignonright-0">
    <path
       style="fill:#413ed5;fill-opacity:1;stroke:#413ed5;stroke-width:0.264583;stroke-opacity:1"
       d="m 70.21693,27.182959 c 0.963312,-0.08119 1.858944,0.442167 2.64674,1.111642 0.787796,0.669475 0.552709,2.122144 0.389155,2.909453 -0.163554,0.787309 -0.800785,2.393056 -2.153548,2.416168 -1.352763,0.02311 -1.917854,-1.440791 -2.215301,-1.943313 -0.297447,-0.502522 -0.660162,-1.6651 -0.708992,-2.077165 -0.07763,-0.655111 -0.154593,-0.910409 0.117639,-1.211058 0.29058,-0.320912 1.162884,-1.141554 1.924307,-1.205727 z"
       id="path4-6-0"
       sodipodi:nodetypes="szzzzsss" />
  </g>
  <g
     inkscape:groupmode="layer"
     id="layer14"
     inkscape:label="moignonright-1">
    <path
       style="fill:#413ed5;fill-opacity:1;stroke:#413ed5;stroke-width:0.264583;stroke-opacity:1"
       d="m 78.078663,26.688885 c 0,0 1.867912,0.495973 2.655708,1.165448 0.787796,0.669475 1.162514,1.996596 1.178314,2.748034 0.0158,0.751438 -0.06543,2.177831 -1.454066,2.362362 -1.388634,0.184531 -2.581465,-1.530468 -2.914783,-1.889507 -0.333318,-0.359039 -1.449321,-1.503681 -1.498151,-1.915746 -0.07763,-0.655111 0.117639,-1.211058 0.117639,-1.211058 z"
       id="path4-61"
       sodipodi:nodetypes="czzzzscc" />
  </g>
  <g
     inkscape:groupmode="layer"
     id="layer16"
     inkscape:label="noodlesleft-1">
    <path
       style="fill:#413ed5;fill-opacity:1;stroke:none;stroke-width:0.264583;stroke-dasharray:none;stroke-opacity:1"
       d="m 94.419774,19.979034 c 0,0 -1.626058,1.434429 -1.420412,2.536453 0.205646,1.102024 2.826317,0.994236 2.942287,2.434995 0.11596,1.440759 -2.943657,2.299889 -3.195933,3.652492 -0.252276,1.352603 0.645327,3.861322 1.166768,3.195931 0.521441,-0.665391 -1.027816,-1.4706 -0.583383,-3.018379 0.364568,-1.269641 3.216948,-2.03115 3.157888,-3.753951 -0.0591,-1.722801 -2.429304,-1.473794 -2.701326,-2.701322 -0.272022,-1.227528 1.571807,-1.821687 1.306273,-2.308172 -0.265534,-0.486485 -0.672162,-0.03805 -0.672162,-0.03805 z"
       id="path5"
       sodipodi:nodetypes="czzzzzzzzcc" />
  </g>
  <g
     inkscape:groupmode="layer"
     id="layer15"
     inkscape:label="noodlesleft-0">
    <path
       style="fill:#413ed5;fill-opacity:1;stroke:none;stroke-width:0.264583;stroke-dasharray:none;stroke-opacity:1"
       d="m 89.055512,20.064778 c 0,0 -0.57343,1.320289 -0.367784,2.422313 0.205646,1.102024 0.79716,1.18447 0.913123,2.625229 0.115963,1.440759 -1.23155,2.312571 -1.483826,3.665174 -0.252276,1.352603 -0.09024,3.772546 0.431197,3.107155 0.521441,-0.665391 -0.292245,-1.381824 0.152188,-2.929603 0.364568,-1.269641 1.504841,-2.043832 1.445779,-3.766633 -0.05906,-1.722801 -0.400138,-1.664028 -0.67216,-2.891556 -0.272022,-1.227528 0.519179,-1.707547 0.253645,-2.194032 -0.265534,-0.486485 -0.672162,-0.03805 -0.672162,-0.03805 z"
       id="path5-0"
       sodipodi:nodetypes="czzzzzzzzcc" />
  </g>
  <g
     inkscape:groupmode="layer"
     id="layer17"
     inkscape:label="noodlesright-0">
    <path
       style="fill:#413ed5;fill-opacity:1;stroke:none;stroke-width:0.264583;stroke-dasharray:none;stroke-opacity:1"
       d="m 100.66623,19.90684 c 0,0 1.62606,1.434429 1.42042,2.536453 -0.20565,1.102024 -2.826318,0.994236 -2.942288,2.434995 -0.11596,1.440759 2.943658,2.299889 3.195928,3.652492 0.25228,1.352603 -0.64532,3.861322 -1.16677,3.195931 -0.52144,-0.665391 1.02782,-1.4706 0.58339,-3.018379 -0.36457,-1.269641 -3.216948,-2.03115 -3.157888,-3.753951 0.0591,-1.722801 2.429298,-1.473794 2.701318,-2.701322 0.27203,-1.227528 -1.571798,-1.821687 -1.306268,-2.308172 0.265538,-0.486485 0.672158,-0.03805 0.672158,-0.03805 z"
       id="path5-4"
       sodipodi:nodetypes="czzzzzzzzcc" />
  </g>
  <g
     inkscape:groupmode="layer"
     id="layer18"
     inkscape:label="noodlesright-1">
    <path
       style="fill:#413ed5;fill-opacity:1;stroke:none;stroke-width:0.264583;stroke-dasharray:none;stroke-opacity:1"
       d="m 106.03049,19.992584 c 0,0 0.57343,1.320289 0.36778,2.422313 -0.20564,1.102024 -0.79716,1.18447 -0.91312,2.625229 -0.11596,1.440759 1.23155,2.312571 1.48383,3.665174 0.25227,1.352603 0.0902,3.772546 -0.4312,3.107155 -0.52144,-0.665391 0.29225,-1.381824 -0.15219,-2.929603 -0.36457,-1.269641 -1.50484,-2.043832 -1.44578,-3.766633 0.0591,-1.722801 0.40014,-1.664028 0.67216,-2.891556 0.27203,-1.227528 -0.51918,-1.707547 -0.25364,-2.194032 0.26553,-0.486485 0.67216,-0.03805 0.67216,-0.03805 z"
       id="path5-0-6"
       sodipodi:nodetypes="czzzzzzzzcc" />
  </g>
</svg>
