<?xml version="1.0" encoding="UTF-8" standalone="no"?>
<!-- Created with Inkscape (http://www.inkscape.org/) -->

<svg
   width="210mm"
   height="297mm"
   viewBox="0 0 210 297"
   version="1.1"
   id="svg1"
   inkscape:version="1.4.2 (ebf0e940, 2025-05-08)"
   sodipodi:docname="tama.svg"
   xmlns:inkscape="http://www.inkscape.org/namespaces/inkscape"
   xmlns:sodipodi="http://sodipodi.sourceforge.net/DTD/sodipodi-0.dtd"
   xmlns="http://www.w3.org/2000/svg"
   xmlns:svg="http://www.w3.org/2000/svg">
  <sodipodi:namedview
     id="namedview1"
     pagecolor="#ffffff"
     bordercolor="#000000"
     borderopacity="0.25"
     inkscape:showpageshadow="2"
     inkscape:pageopacity="0.0"
     inkscape:pagecheckerboard="0"
     inkscape:deskcolor="#d1d1d1"
     inkscape:document-units="mm"
     inkscape:zoom="2.2671668"
     inkscape:cx="135.4113"
     inkscape:cy="516.50369"
     inkscape:window-width="1440"
     inkscape:window-height="847"
     inkscape:window-x="0"
     inkscape:window-y="25"
     inkscape:window-maximized="1"
     inkscape:current-layer="patatoshi-1" />
  <defs
     id="defs1" />
  <g
     inkscape:label="body"
     inkscape:groupmode="layer"
     id="duckoshi-0">
    <path
       style="fill:none;stroke:#003e85;stroke-width:0.793999"
       d="m 25.18559,7.0229049 c 3.96099,-1.3278613 12.326283,-1.8773779 16.70967,0.7265072 4.383387,2.6038849 6.914718,9.2783539 6.538565,13.0771329 -0.376153,3.798779 7.417231,1.325059 7.083853,3.913795 -0.333378,2.588735 -5.252487,5.015555 -7.23514,8.68966 -1.982653,3.674105 -15.77163,7.303871 -22.61261,2.6532 -4.532829,-3.081532 0.170849,-4.836813 -0.867135,-7.760072 C 23.764809,25.399869 19.569067,21.277484 19.134914,16.380173 18.700761,11.482862 21.2246,8.3507662 25.18559,7.0229049 Z"
       id="path1"
       sodipodi:nodetypes="zzzzzzzzz"
       inkscape:label="body" />
    <circle
       style="fill:none;stroke:#003e85;stroke-width:0.793999"
       id="path2"
       cx="19.07136"
       cy="14.725906"
       r="1.4316946"
       inkscape:label="mouth" />
    <circle
       style="fill:none;stroke:#003e85;stroke-width:0.793999"
       id="path2-9"
       cx="34.918278"
       cy="13.378037"
       r="1.4316946"
       inkscape:label="eye" />
    <circle
       style="fill:none;stroke:#003e85;stroke-width:0.793999"
       id="path2-5"
       cx="27.72979"
       cy="37.19125"
       r="1.4316946"
       inkscape:label="leg1" />
    <circle
       style="fill:none;stroke:#003e85;stroke-width:0.793999"
       id="path2-0"
       cx="43.644539"
       cy="36.617344"
       r="1.4316946"
       inkscape:label="leg2" />
  </g>
  <g
     inkscape:label="body"
     inkscape:groupmode="layer"
     id="duckoshi-0-4"
     transform="translate(3.9105793,41.664187)">
    <path
       style="fill:none;stroke:#003e85;stroke-width:0.793999"
       d="m 28.170397,9.9172629 c 3.96099,-1.3278613 12.326283,-1.8773779 16.70967,0.7265071 4.383387,2.603885 3.929911,6.383996 3.553758,10.182775 -0.376153,3.798779 6.422295,-0.122119 6.993404,2.285719 0.571109,2.407837 -5.162038,6.643631 -7.144691,10.317736 -1.982653,3.674105 -15.77163,7.303871 -22.61261,2.6532 -4.532829,-3.081532 0.170849,-4.836813 -0.867135,-7.760072 -1.037984,-2.923259 -2.248919,-4.151286 -2.683072,-9.048597 -0.434153,-4.897311 2.089686,-8.029407 6.050676,-9.3572681 z"
       id="path1-4"
       sodipodi:nodetypes="zzzzzzzzz"
       inkscape:label="body" />
    <circle
       style="fill:none;stroke:#003e85;stroke-width:0.793999"
       id="path2-3"
       cx="22.146614"
       cy="16.082636"
       r="1.4316946"
       inkscape:label="mouth" />
    <circle
       style="fill:none;stroke:#003e85;stroke-width:0.793999"
       id="path2-9-8"
       cx="38.445778"
       cy="15.458358"
       r="1.4316946"
       inkscape:label="eye" />
    <circle
       style="fill:none;stroke:#003e85;stroke-width:0.793999"
       id="path2-5-2"
       cx="27.72979"
       cy="37.19125"
       r="1.4316946"
       inkscape:label="leg1" />
    <circle
       style="fill:none;stroke:#003e85;stroke-width:0.793999"
       id="path2-0-2"
       cx="43.644539"
       cy="36.617344"
       r="1.4316946"
       inkscape:label="leg2" />
  </g>
  <g
     inkscape:label="body"
     inkscape:groupmode="layer"
     id="patatoshi-0"
     transform="translate(5.8651094,89.326684)">
    <path
       style="fill:none;stroke:#003e85;stroke-width:0.793999"
       d="M 28.170397,9.9172629 C 32.131387,8.5894016 40.49668,8.039885 44.880067,10.64377 49.263454,13.247655 52.931811,23.92268 44.9314,26.955789 43.789905,32.323849 40.180984,44.02879 25.669928,36.0832 19.83938,31.825866 19.175711,12.932593 28.170397,9.9172629 Z"
       id="path1-4-1"
       sodipodi:nodetypes="zzczz"
       inkscape:label="body" />
    <circle
       style="fill:none;stroke:#003e85;stroke-width:0.793999"
       id="path2-3-8"
       cx="21.271008"
       cy="20.168798"
       r="1.4316946"
       inkscape:label="mouth" />
    <circle
       style="fill:none;stroke:#003e85;stroke-width:0.793999"
       id="path2-9-8-5"
       cx="36.110825"
       cy="17.793308"
       r="1.4316946"
       inkscape:label="eye" />
    <circle
       style="fill:none;stroke:#003e85;stroke-width:0.793999"
       id="path2-5-2-3"
       cx="25.39484"
       cy="35.877842"
       r="1.4316946"
       inkscape:label="leg1" />
    <circle
       style="fill:none;stroke:#003e85;stroke-width:0.793999"
       id="path2-0-2-1"
       cx="39.996178"
       cy="36.763279"
       r="1.4316946"
       inkscape:label="leg2" />
  </g>
  <g
     inkscape:label="body"
     inkscape:groupmode="layer"
     id="patatoshi-1"
     transform="translate(5.9505488,124.48925)">
    <path
       style="fill:none;stroke:#003e85;stroke-width:0.793999"
       d="m 27.703588,8.6335388 c 8.877984,-1.148095 15.477242,-1.4105691 19.627225,3.2939552 4.149983,4.704525 5.600998,11.995186 -2.399416,15.028295 -2.904792,1.750412 -7.180966,4.493648 -8.001515,8.2726 -0.641454,2.95415 -7.622194,6.11133 -9.97623,0.621407 -2.84511,-6.635174 -7.777941,-24.200927 0.749936,-27.2162572 z"
       id="path1-4-1-2"
       sodipodi:nodetypes="czcssc"
       inkscape:label="body" />
    <circle
       style="fill:none;stroke:#003e85;stroke-width:0.793999"
       id="path2-3-8-1"
       cx="22.554731"
       cy="19.118479"
       r="1.4316946"
       inkscape:label="mouth" />
    <circle
       style="fill:none;stroke:#003e85;stroke-width:0.793999"
       id="path2-9-8-5-4"
       cx="39.145081"
       cy="14.992455"
       r="1.4316946"
       inkscape:label="eye" />
    <circle
       style="fill:none;stroke:#003e85;stroke-width:0.793999"
       id="path2-5-2-3-0"
       cx="27.262074"
       cy="37.978481"
       r="1.4316946"
       inkscape:label="leg1" />
    <circle
       style="fill:none;stroke:#003e85;stroke-width:0.793999"
       id="path2-0-2-1-0"
       cx="36.028301"
       cy="37.580193"
       r="1.4316946"
       inkscape:label="leg2" />
  </g>
  <g
     inkscape:groupmode="layer"
     id="sideeye-2"
     inkscape:label="eye">
    <path
       style="fill:none;stroke:#003e85;stroke-width:0.939976"
       d="M 77.787542,36.088946 84.25407,32.78578"
       id="path13" />
    <ellipse
       style="fill:none;stroke:#003e85;stroke-width:0.793999"
       id="path14"
       cx="80.905708"
       cy="34.4603"
       rx="1.1042017"
       ry="1.0581933"
       inkscape:label="eye" />
  </g>
  <g
     inkscape:groupmode="layer"
     id="sideeye-0"
     inkscape:label="eye">
    <path
       style="fill:none;stroke:#003e85;stroke-width:0.66161"
       d="m 79.15391,11.070943 c 0.767475,-1.1401973 1.926357,-1.1493554 2.696328,0 0.769971,1.149353 0.777323,4.582935 0,5.727711 -0.777323,1.144776 -1.95363,1.101875 -2.714408,-0.05468 -0.760776,-1.156554 -0.749395,-4.532838 0.01807,-5.673034 z"
       id="path3"
       sodipodi:nodetypes="zzzzz" />
    <ellipse
       style="fill:none;stroke:#003e85;stroke-width:0.793999"
       id="path4"
       cx="80.554405"
       cy="13.948726"
       rx="0.63659799"
       ry="0.81848311"
       inkscape:label="eye" />
  </g>
  <g
     inkscape:groupmode="layer"
     id="sideeye-1"
     inkscape:label="eye">
    <path
       style="fill:none;stroke:#003e85;stroke-width:1.08849"
       d="m 77.707652,27.225228 c 0,0 1.004613,-5.354305 2.853069,-5.354305 1.848457,0 2.853068,5.354305 2.853068,5.354305"
       id="path11"
       sodipodi:nodetypes="csc" />
    <ellipse
       style="fill:none;stroke:#003e85;stroke-width:0.793999"
       id="path12"
       cx="80.583786"
       cy="25.511589"
       rx="0.73613447"
       ry="0.9201681"
       inkscape:label="eye" />
  </g>
  <g
     inkscape:groupmode="layer"
     id="duckface-1"
     inkscape:label="mouth"
     transform="translate(0.28346003,15.169885)">
    <path
       style="fill:none;stroke:#003e85;stroke-width:0.536533"
       d="m 123.31077,7.2810675 c -0.049,-1.1939235 3.41287,1.541114 3.44344,2.7509885 -0.0542,1.323491 -2.18737,2.587757 -3.4432,2.767169 -1.1678,0.161579 -3.70965,0.197896 -4.40263,-0.03656 -1.45107,-0.396103 -3.16818,-1.197694 -3.19329,-2.358065 -0.0251,-1.1603708 2.73335,-4.3274312 2.94175,-3.1986399 0.2084,1.1287913 2.51102,4.5962689 2.5228,4.5718069 0,0 1.6978,-3.5783925 2.13113,-4.4966995 z"
       id="path5-1"
       sodipodi:nodetypes="czzzzzsc" />
    <ellipse
       style="fill:none;stroke:#003e85;stroke-width:0.793999"
       id="path9-9"
       cx="121.05413"
       cy="12.931786"
       rx="0.97743011"
       ry="0.86882681"
       inkscape:label="mouth" />
  </g>
  <g
     inkscape:groupmode="layer"
     id="duckface-0"
     inkscape:label="mouth"
     transform="translate(0,2.9251495)">
    <path
       style="fill:none;stroke:#003e85;stroke-width:0.536533"
       d="m 122.08227,6.6147051 c 0.16778,-1.1179754 2.31041,1.1276894 2.89221,2.0274958 0.58181,0.8998064 0.25836,2.6634551 -0.0619,3.2262551 -0.3202,0.5628 -0.24974,0.585158 -1.41754,0.746735 -1.1678,0.161579 -3.70965,0.197896 -4.40263,-0.03656 -0.69297,-0.234479 -1.24984,-0.256845 -1.58792,-0.676429 -0.33809,-0.419585 -0.55026,-2.6604284 0.22059,-3.5764988 0.77085,-0.9160707 3.07787,-2.7426365 3.25182,-1.5793931 0.17397,1.1632421 0.40587,4.8667159 0.38677,4.8474229 0,0 0.55076,-3.8610295 0.71854,-4.9790049 z"
       id="path5"
       sodipodi:nodetypes="zzzzzzzzsz" />
    <ellipse
       style="fill:none;stroke:#003e85;stroke-width:0.793999"
       id="path9"
       cx="121.23817"
       cy="12.782205"
       rx="0.97743011"
       ry="0.86882681"
       inkscape:label="mouth" />
  </g>
  <g
     inkscape:groupmode="layer"
     id="spagleft-1"
     inkscape:label="leg1"
     transform="translate(1.2840136,16.45872)">
    <path
       style="fill:none;stroke:#003e85;stroke-width:0.793999"
       d="m 169.76923,-8.1204875 -4.5126,-0.039407 c 0,0 1.34724,2.6094022 -0.86466,5.9347542 -2.2119,3.325352 -7.54358,3.4944406 -7.54358,3.4944406"
       id="path7"
       sodipodi:nodetypes="cczc" />
    <ellipse
       style="fill:none;stroke:#003e85;stroke-width:0.793999"
       id="path10"
       cx="156.80103"
       cy="1.2621115"
       rx="1.1093414"
       ry="0.98608112"
       inkscape:label="leg1" />
  </g>
  <g
     inkscape:groupmode="layer"
     id="spagleft-0"
     inkscape:label="leg1"
     transform="translate(-1.41632,-1.4971194)">
    <path
       style="fill:none;stroke:#003e85;stroke-width:0.793999"
       d="m 156.37833,6.7677882 c 0,0 -4.80715,0.00848 -4.77985,0.3347499 0.0273,0.3262682 1.10538,4.7878849 0.19718,8.0478009 -0.90821,3.259915 -2.50884,4.196603 -2.50884,4.196603"
       id="path7-9"
       sodipodi:nodetypes="czzc" />
    <ellipse
       style="fill:none;stroke:#003e85;stroke-width:0.793999"
       id="path10-0"
       cx="149.23943"
       cy="19.339752"
       rx="1.1093414"
       ry="0.98608112"
       inkscape:label="leg1" />
  </g>
  <g
     inkscape:groupmode="layer"
     id="spagright-0"
     inkscape:label="leg2">
    <path
       style="fill:none;stroke:#003e85;stroke-width:0.793999"
       d="m 182.08449,4.9560454 c 0,0 4.80715,0.00848 4.77985,0.3347499 -0.0273,0.3262682 -1.10538,4.7878847 -0.19718,8.0478007 0.90821,3.259915 2.50884,4.196603 2.50884,4.196603"
       id="path7-6"
       sodipodi:nodetypes="czzc" />
    <ellipse
       style="fill:none;stroke:#003e85;stroke-width:0.793999"
       id="path10-2"
       cx="189.16763"
       cy="17.442469"
       rx="1.1093414"
       ry="0.98608112"
       inkscape:label="leg2" />
  </g>
  <g
     inkscape:groupmode="layer"
     id="spagright-1"
     inkscape:label="leg2">
    <path
       style="fill:none;stroke:#003e85;stroke-width:0.793999"
       d="m 192.04682,7.7303719 4.5126,-0.03941 c 0,0 -1.34724,2.6094031 0.86466,5.9347551 2.2119,3.325352 7.54358,3.49444 7.54358,3.49444"
       id="path7-63"
       sodipodi:nodetypes="cczc" />
    <ellipse
       style="fill:none;stroke:#003e85;stroke-width:0.793999"
       id="path10-1"
       cx="204.57079"
       cy="17.112972"
       rx="1.1093414"
       ry="0.98608112"
       inkscape:label="leg2" />
  </g>
</svg>
