<?xml version="1.0" encoding="UTF-8" standalone="no"?>
<!-- Created with Inkscape (http://www.inkscape.org/) -->

<svg
   width="210mm"
   height="297mm"
   viewBox="0 0 210 297"
   version="1.1"
   id="svg1"
   inkscape:version="1.4.2 (ebf0e940, 2025-05-08)"
   sodipodi:docname="tama.svg"
   xmlns:inkscape="http://www.inkscape.org/namespaces/inkscape"
   xmlns:sodipodi="http://sodipodi.sourceforge.net/DTD/sodipodi-0.dtd"
   xmlns="http://www.w3.org/2000/svg"
   xmlns:svg="http://www.w3.org/2000/svg">
  <sodipodi:namedview
     id="namedview1"
     pagecolor="#ffffff"
     bordercolor="#000000"
     borderopacity="0.25"
     inkscape:showpageshadow="2"
     inkscape:pageopacity="0.0"
     inkscape:pagecheckerboard="0"
     inkscape:deskcolor="#d1d1d1"
     inkscape:document-units="mm"
     inkscape:zoom="2.1465441"
     inkscape:cx="438.84493"
     inkscape:cy="62.89179"
     inkscape:window-width="1440"
     inkscape:window-height="847"
     inkscape:window-x="0"
     inkscape:window-y="25"
     inkscape:window-maximized="1"
     inkscape:current-layer="spagright-0" />
  <defs
     id="defs1" />
  <g
     inkscape:label="body"
     inkscape:groupmode="layer"
     id="duckoshi-0">
    <path
       style="fill:none;stroke:#003e85;stroke-width:0.793999"
       d="m 25.18559,7.0229049 c 3.96099,-1.3278613 12.326283,-1.8773779 16.70967,0.7265072 4.383387,2.6038849 6.914718,9.2783539 6.538565,13.0771329 -0.376153,3.798779 7.417231,1.325059 7.083853,3.913795 -0.333378,2.588735 -5.252487,5.015555 -7.23514,8.68966 -1.982653,3.674105 -15.77163,7.303871 -22.61261,2.6532 -4.532829,-3.081532 0.170849,-4.836813 -0.867135,-7.760072 C 23.764809,25.399869 19.569067,21.277484 19.134914,16.380173 18.700761,11.482862 21.2246,8.3507662 25.18559,7.0229049 Z"
       id="path1"
       sodipodi:nodetypes="zzzzzzzzz"
       inkscape:label="body" />
    <circle
       style="fill:none;stroke:#003e85;stroke-width:0.793999"
       id="path2"
       cx="19.07136"
       cy="14.725906"
       r="1.4316946"
       inkscape:label="mouth" />
    <circle
       style="fill:none;stroke:#003e85;stroke-width:0.793999"
       id="path2-9"
       cx="34.918278"
       cy="13.378037"
       r="1.4316946"
       inkscape:label="eye" />
    <circle
       style="fill:none;stroke:#003e85;stroke-width:0.793999"
       id="path2-5"
       cx="27.72979"
       cy="37.19125"
       r="1.4316946"
       inkscape:label="leg1" />
    <circle
       style="fill:none;stroke:#003e85;stroke-width:0.793999"
       id="path2-0"
       cx="43.644539"
       cy="36.617344"
       r="1.4316946"
       inkscape:label="leg2" />
  </g>
  <g
     inkscape:groupmode="layer"
     id="sideeye-0"
     inkscape:label="eye">
    <path
       style="fill:none;stroke:#003e85;stroke-width:0.793999"
       d="m 78.571794,11.121549 c 1.12531,-1.119971 2.82452,-1.1289667 3.95349,0 1.12897,1.128966 1.13975,4.50164 0,5.626109 -1.13975,1.124469 -2.86451,1.082329 -3.98,-0.05371 -1.115488,-1.136037 -1.098801,-4.45243 0.0265,-5.572401 z"
       id="path3"
       sodipodi:nodetypes="zzzzz" />
    <ellipse
       style="fill:none;stroke:#003e85;stroke-width:0.793999"
       id="path4"
       cx="80.554405"
       cy="13.948726"
       rx="0.63659799"
       ry="0.81848311"
       inkscape:label="eye" />
  </g>
  <g
     inkscape:groupmode="layer"
     id="duckface-0"
     inkscape:label="mouth"
     transform="translate(0,2.9251495)">
    <path
       style="fill:none;stroke:#003e85;stroke-width:0.536533"
       d="m 122.08227,6.6147051 c 0.16778,-1.1179754 2.31041,1.1276894 2.89221,2.0274958 0.58181,0.8998064 0.25836,2.6634551 -0.0619,3.2262551 -0.3202,0.5628 -0.24974,0.585158 -1.41754,0.746735 -1.1678,0.161579 -3.70965,0.197896 -4.40263,-0.03656 -0.69297,-0.234479 -1.24984,-0.256845 -1.58792,-0.676429 -0.33809,-0.419585 -0.55026,-2.6604284 0.22059,-3.5764988 0.77085,-0.9160707 3.07787,-2.7426365 3.25182,-1.5793931 0.17397,1.1632421 0.40587,4.8667159 0.38677,4.8474229 0,0 0.55076,-3.8610295 0.71854,-4.9790049 z"
       id="path5"
       sodipodi:nodetypes="zzzzzzzzsz" />
    <ellipse
       style="fill:none;stroke:#003e85;stroke-width:0.793999"
       id="path9"
       cx="121.23817"
       cy="12.541038"
       rx="0.97743011"
       ry="0.86882681"
       inkscape:label="mouth" />
  </g>
  <g
     inkscape:groupmode="layer"
     id="spagleft-0"
     inkscape:label="leg1">
    <path
       style="fill:none;stroke:#003e85;stroke-width:0.793999"
       d="m 164.04905,6.6566183 c 0,0 -4.80715,0.00848 -4.77985,0.3347499 0.0273,0.3262682 1.10538,4.7878848 0.19718,8.0478008 -0.90821,3.259915 -2.50884,4.196603 -2.50884,4.196603"
       id="path7"
       sodipodi:nodetypes="czzc" />
    <ellipse
       style="fill:none;stroke:#003e85;stroke-width:0.793999"
       id="path10"
       cx="156.91016"
       cy="19.228582"
       rx="1.1093414"
       ry="0.98608112"
       inkscape:label="leg1" />
  </g>
  <g
     inkscape:groupmode="layer"
     id="spagright-0"
     inkscape:label="leg2">
    <path
       style="fill:none;stroke:#003e85;stroke-width:0.793999"
       d="m 183.97438,6.2900844 c 0,0 4.80715,0.00848 4.77985,0.3347499 -0.0273,0.3262682 -1.10538,4.7878847 -0.19718,8.0478007 0.90821,3.259915 2.50884,4.196603 2.50884,4.196603"
       id="path7-6"
       sodipodi:nodetypes="czzc" />
    <ellipse
       style="fill:none;stroke:#003e85;stroke-width:0.793999"
       id="path10-2"
       cx="191.05753"
       cy="18.776508"
       rx="1.1093414"
       ry="0.98608112"
       inkscape:label="leg2" />
  </g>
</svg>
