 <svg width="80" height="80" viewBox="-40 -40 80 80" xmlns="http://www.w3.org/2000/svg">
   <g id="body" label="body" transform="">
     <g id="leg1" label="leg1" transform=" translate(4.880164999999998,24.83586)">
       <path id="path5" label="path" d=" m -0.07077199999999806 -0.15205200000000474 c 0 0 -5.119122 2.024352 -6.231104 4.28701 -1.296116 2.637334 0.481112 8.802701 0.481112 8.802701 l -4.161323 0.02535" style="fill:none;stroke:#003e85;stroke-width:0.79375"></path>
       <ellipse id="path9" label="leg1" cx="0" cy="0" rx="0.76583886" ry="0.85593754"></ellipse>
     </g>
     <path id="path1" label="body" d=" m 0 0 c 2.384706 -3.8247189 9.090522 -2.8303014 13.419508 -2.9698914 4.328986 -0.13959 8.777591 -0.1227708 12.099557 1.8699314 3.321966 1.992702 5.665494 5.552875 6.599759 8.799678 0.934265 3.246803 0.907 6.146902 -0.769972 9.239661 -1.401888 2.585435 -4.005582 4.719819 -7.320097 6.355104 -0.650388 0.320882 -1.328144 0.622547 -2.029561 0.904631 -4.275988 1.719648 -11.763687 4.446312 -15.729423 1.649939 -0.37043 -0.261202 -0.689892 -0.548786 -0.965528 -0.859054 -2.675262 -3.011389 -1.222003 -8.159713 -2.169357 -12.065472 -0.706428 -2.912467 -2.980282 -6.045882 -3.64267 -8.952141 -0.317429 -1.392734 -0.264783 -2.733301 0.507784 -3.972386 z" style="fill:none;stroke:#003e85;stroke-width:0.79375"></path>
     <ellipse id="path8" label="leg1" cx="4.880164999999998" cy="24.83586" rx="1.1408623" ry="1.0933264"></ellipse>
   </g>
 </svg>