 <svg width="80" height="80" viewBox="-40 -40 80 80" xmlns="http://www.w3.org/2000/svg">
   <g id="g7" label="body" transform="">
     <g id="eye1" label="eye1" transform=" translate(10.137703000000002,-11.337412)">
       <path id="path2" label="path" d=" m -1.8030510000000035 3.2851920000000003 c 0 0 0.527185 -3.232544 1.744681 -3.330758 1.217496 -0.09821 2.141202 2.854935 2.141202 2.854935" style="fill:none;stroke:#003e85;stroke-width:0.79375"></path>
       <ellipse id="path8-73" label="eye1" cx="0" cy="0" rx="0.090000004" ry="0.089945354"></ellipse>
     </g>
     <g id="mouth" label="mouth" transform=" translate(1.7418440000000004,-9.025407999999999)">
       <path id="path3" label="path" d=" m -0.3454999999999977 -2.1071930000000005 c 0 0 -4.49345 -1.318558 -6.578528 -0.507048 -0.843157 0.328156 -2.666533 1.310354 -2.024162 2.028188 1.234839 1.379903 8.836053 0.638468 8.836053 0.638468 0 0 -7.798679 1.086497 -8.330013 1.643245 -0.707129 0.740952 1.382069 1.72642 2.313329 1.94368 2.183934 0.509505 6.506237 -1.774665 6.506237 -1.774665 z" style="fill:none;stroke:#003e85;stroke-width:1.05715"></path>
       <ellipse id="path8-7" label="mouth" cx="0" cy="0" rx="0.090000004" ry="0.089945354"></ellipse>
     </g>
     <g id="eye1" label="eye1" transform=" translate(15.299293000000006,-10.207684999999998)">
       <path id="path2" label="path" d=" m -1.8030510000000035 3.2851920000000003 c 0 0 0.527185 -3.232544 1.744681 -3.330758 1.217496 -0.09821 2.141202 2.854935 2.141202 2.854935" style="fill:none;stroke:#003e85;stroke-width:0.79375"></path>
       <ellipse id="path8-73" label="eye1" cx="0" cy="0" rx="0.090000004" ry="0.089945354"></ellipse>
     </g>
     <path id="path6" label="body" d=" m 0 0 c -3.354875 0.08347 0.486214 -6.980384 2.30591 -9.800111 1.708933 -2.648093 4.543544 -4.65731 7.494201 -5.764771 4.326137 -1.623716 9.311824 -1.80748 13.835444 -0.864716 2.16641 0.451501 4.16684 1.661794 5.9089 3.026505 1.9033 1.491024 3.90976 3.211648 4.75593 5.476531 0.67251 1.800066 3.36191 7.490922 1.44119 7.548899 -11.88503 0.358752 -27.785804 0.218924 -35.741575 0.377663 z" style="fill:none;stroke:#003e85;stroke-width:0.79375"></path>
     <ellipse id="path10" label="eye1" cx="10.137703000000002" cy="-11.337412" rx="1.6564597" ry="1.3858356"></ellipse>
     <ellipse id="path10-97" label="mouth" cx="1.7418440000000004" cy="-9.025407999999999" rx="1.6564597" ry="1.3858356"></ellipse>
     <ellipse id="path10-9" label="eye1" cx="15.299293000000006" cy="-10.207684999999998" rx="1.6564597" ry="1.3858356"></ellipse>
   </g>
 </svg>